<svg id="Capa_1" enable-background="new 0 0 512 512" height="512" viewBox="0 0 512 512" width="512" xmlns="http://www.w3.org/2000/svg"><g><g><path d="m488.468 95.677h-464.936c-8.854 0-16.032 7.178-16.032 16.032v288.581c0 8.854 7.179 16.032 16.032 16.032h464.935c8.854 0 16.032-7.178 16.032-16.032v-288.58c.001-8.855-7.177-16.033-16.031-16.033z" fill="#faf5dc"/><path d="m425.14 392.274-11.692-38.975c-3.051-10.172-12.414-17.138-23.035-17.138h-268.826c-10.621 0-19.984 6.966-23.035 17.138l-11.692 38.975h-22.622c-17.709 0-32.065-14.356-32.065-32.065v-264.532h-8.641c-8.854 0-16.032 7.178-16.032 16.032v288.581c0 8.854 7.179 16.032 16.032 16.032h464.935c8.854 0 16.032-7.178 16.032-16.032v-8.016z" fill="#f9eac7"/><path d="m464.419 127.742h-416.838c-4.427 0-8.016 3.589-8.016 8.016v160.323c0 4.427 3.589 8.016 8.016 8.016h416.839c4.427 0 8.016-3.589 8.016-8.016v-160.323c-.001-4.427-3.59-8.016-8.017-8.016z" fill="#a4ccff"/><path d="m264.016 127.742h-96.193l128.258 176.355h152.306z" fill="#b3e59f"/><path d="m95.696 127.742h-48.115c-4.427 0-8.016 3.589-8.016 8.016v160.323c0 4.427 3.589 8.016 8.016 8.016h112.244z" fill="#ff8086"/><path d="m167.823 127.742h-72.127l64.129 176.355h136.256z" fill="#ffe07d"/><path d="m84.455 391.625-4.81 24.698h352.71l-4.811-24.698z" fill="#f4dbb3"/><path d="m231.952 207.903h80.161v48.097h-80.161z" fill="#fff"/><path d="m79.645 215.919v32.065c0 4.427 3.589 8.016 8.016 8.016h157.422c1.83-7.732 2.9-15.757 2.9-24.048s-1.071-16.316-2.9-24.048h-157.422c-4.427-.001-8.016 3.588-8.016 8.015z" fill="#5d5360"/><path d="m424.339 207.903h-115.537c-3.011 7.431-4.705 15.537-4.705 24.048s1.694 16.617 4.705 24.048h115.537c4.427 0 8.016-3.589 8.016-8.016v-32.065c0-4.426-3.589-8.015-8.016-8.015z" fill="#5d5360"/><g fill="#fff"><circle cx="143.774" cy="231.952" r="24.048"/><circle cx="368.226" cy="231.952" r="24.048"/></g></g><g><path d="m488.468 88.177h-464.936c-12.975 0-23.532 10.557-23.532 23.532v288.581c0 12.976 10.557 23.532 23.532 23.532h464.936c12.976 0 23.532-10.557 23.532-23.532v-288.581c0-12.975-10.557-23.532-23.532-23.532zm8.532 312.114c0 4.705-3.828 8.532-8.532 8.532h-50.533l-17.304-57.678c-4.034-13.448-16.177-22.483-30.218-22.483h-22.188c-4.142 0-7.5 3.358-7.5 7.5s3.358 7.5 7.5 7.5h22.188c7.365 0 13.734 4.739 15.851 11.793l16.011 53.368h-332.55l16.011-53.369c2.116-7.054 8.486-11.793 15.851-11.793h214.578c4.142 0 7.5-3.358 7.5-7.5s-3.358-7.5-7.5-7.5h-214.579c-14.04 0-26.184 9.035-30.218 22.483l-17.304 57.679h-50.532c-4.705 0-8.532-3.828-8.532-8.532v-288.582c0-4.705 3.828-8.532 8.532-8.532h464.936c4.705 0 8.532 3.828 8.532 8.532z"/><path d="m464.419 120.242h-320.647c-4.142 0-7.5 3.358-7.5 7.5s3.358 7.5 7.5 7.5h20.232l47.39 65.162h-81.314l-23.695-65.162h5.328c4.142 0 7.5-3.358 7.5-7.5s-3.358-7.5-7.5-7.5h-64.132c-8.556 0-15.516 6.961-15.516 15.517v160.322c0 8.556 6.96 15.516 15.516 15.516h416.839c8.556 0 15.516-6.96 15.516-15.516v-160.323c0-8.555-6.961-15.516-15.517-15.516zm-281.868 15h78.456l68.124 65.162h-99.19zm117.349 161.355-24.07-33.097h119.265l34.602 33.097zm-134.84 0-12.036-33.097h104.258l24.07 33.097zm74.01-81.194c.937 5.443 1.414 10.986 1.414 16.548s-.477 11.106-1.414 16.548h-68.45c2.979-4.814 4.703-10.483 4.703-16.548s-1.725-11.734-4.703-16.548zm102.31 0c-2.979 4.814-4.703 10.483-4.703 16.548s1.725 11.734 4.703 16.548h-27.321c-1.63-5.336-2.463-10.881-2.463-16.548 0-5.668.833-11.213 2.462-16.548zm-42.853 33.097h-44.267c.811-5.462 1.224-10.998 1.224-16.548s-.413-11.087-1.224-16.548h44.267c-1.276 5.389-1.93 10.922-1.93 16.548s.654 11.159 1.93 16.548zm-138.204-16.548c0 9.125-7.423 16.548-16.548 16.548s-16.549-7.423-16.549-16.548 7.424-16.548 16.549-16.548 16.548 7.423 16.548 16.548zm-43.394 16.548h-29.268c-.285 0-.516-.231-.516-.516v-32.064c0-.285.231-.516.516-.516h29.268c-2.979 4.814-4.703 10.483-4.703 16.548s1.724 11.734 4.703 16.548zm278.142 0c2.979-4.814 4.703-10.483 4.703-16.548s-1.725-11.734-4.703-16.548h29.268c.285 0 .516.231.516.516v32.064c0 .285-.231.516-.516.516zm-10.297-16.548c0 9.125-7.424 16.548-16.549 16.548s-16.548-7.423-16.548-16.548 7.423-16.548 16.548-16.548 16.549 7.423 16.549 16.548zm-337.71 64.129v-160.323c0-.285.231-.517.516-.517h42.844l23.695 65.162h-26.458c-8.556 0-15.516 6.96-15.516 15.516v32.064c0 8.556 6.96 15.516 15.516 15.516h49.403l12.035 33.097h-101.518c-.285.001-.517-.231-.517-.515zm417.872 0c0 .285-.231.516-.516.516h-13.023l-34.602-33.097h7.544c8.556 0 15.516-6.96 15.516-15.516v-32.064c0-8.556-6.96-15.516-15.516-15.516h-73.508l-68.124-65.162h181.712c.285 0 .516.232.516.517v160.322z"/><path d="m143.774 376.758h-16.033c-4.142 0-7.5 3.358-7.5 7.5s3.358 7.5 7.5 7.5h16.033c4.142 0 7.5-3.358 7.5-7.5s-3.357-7.5-7.5-7.5z"/><path d="m368.226 391.758h16.033c4.142 0 7.5-3.358 7.5-7.5s-3.358-7.5-7.5-7.5h-16.033c-4.142 0-7.5 3.358-7.5 7.5s3.357 7.5 7.5 7.5z"/></g></g></svg>